<svg width="16" height="18" viewBox="0 0 16 18" fill="none" xmlns="http://www.w3.org/2000/svg">
<path d="M11.4171 9.73574C12.7315 10.3431 13.8523 11.2891 14.6593 12.4725C15.4662 13.6558 15.9289 15.0318 15.9976 16.4529C16.0068 16.5831 15.9893 16.7138 15.9462 16.8372C15.903 16.9607 15.8351 17.0745 15.7465 17.1719C15.6578 17.2693 15.5501 17.3485 15.4298 17.4046C15.3095 17.4608 15.1789 17.4928 15.0457 17.4989C14.9126 17.505 14.7795 17.485 14.6543 17.4401C14.5292 17.3952 14.4144 17.3262 14.3169 17.2373C14.2193 17.1484 14.1409 17.0413 14.0862 16.9223C14.0315 16.8033 14.0016 16.6748 13.9983 16.5444C13.9255 15.0349 13.2617 13.6109 12.1446 12.5678C11.0275 11.5248 9.54286 10.9429 7.99897 10.9429C6.45508 10.9429 4.97048 11.5248 3.85336 12.5678C2.73624 13.6109 2.0724 15.0349 1.99964 16.5444C1.98166 16.7999 1.86218 17.0383 1.6668 17.2087C1.47141 17.379 1.21565 17.4677 0.954277 17.4557C0.692906 17.4438 0.446707 17.3321 0.268402 17.1447C0.0900975 16.9573 -0.00613824 16.7089 0.000303768 16.4529C0.0689453 15.0319 0.531404 13.656 1.3381 12.4727C2.14481 11.2894 3.26533 10.3432 4.57955 9.73574C3.73739 9.0482 3.13206 8.12343 2.84589 7.08724C2.55972 6.05104 2.6066 4.95372 2.98017 3.94453C3.35374 2.93534 4.03585 2.06327 4.93372 1.44696C5.83159 0.830645 6.90164 0.5 7.9983 0.5C9.09496 0.5 10.165 0.830645 11.0629 1.44696C11.9608 2.06327 12.6429 2.93534 13.0164 3.94453C13.39 4.95372 13.4369 6.05104 13.1507 7.08724C12.8645 8.12343 12.2592 9.0482 11.4171 9.73574ZM11.3356 5.72136C11.3356 4.85521 10.9841 4.02453 10.3583 3.41206C9.7326 2.7996 8.88391 2.45552 7.99897 2.45552C7.11403 2.45552 6.26533 2.7996 5.63959 3.41206C5.01384 4.02453 4.6623 4.85521 4.6623 5.72136C4.6623 6.58752 5.01384 7.4182 5.63959 8.03066C6.26533 8.64313 7.11403 8.98721 7.99897 8.98721C8.88391 8.98721 9.7326 8.64313 10.3583 8.03066C10.9841 7.4182 11.3356 6.58752 11.3356 5.72136Z" fill="#A2A7AF"/>
</svg>
