<svg width="21" height="18" viewBox="0 0 21 18" fill="none" xmlns="http://www.w3.org/2000/svg">
<path d="M6.59098 5.99099C6.16903 6.41295 5.59673 6.65 4.99999 6.65C4.40326 6.65 3.83096 6.41295 3.409 5.99099C2.98705 5.56904 2.74999 4.99674 2.74999 4.4C2.74999 3.80327 2.98705 3.23097 3.409 2.80901C3.83096 2.38706 4.40326 2.15 4.99999 2.15C5.59673 2.15 6.16903 2.38706 6.59098 2.80901C7.01294 3.23097 7.24999 3.80327 7.24999 4.4C7.24999 4.99674 7.01294 5.56904 6.59098 5.99099ZM4.99999 8.15C5.49245 8.15 5.98009 8.05301 6.43506 7.86455C6.89003 7.6761 7.30342 7.39987 7.65164 7.05165C7.99986 6.70343 8.27609 6.29004 8.46454 5.83507C8.653 5.38009 8.74999 4.89246 8.74999 4.4C8.74999 3.90755 8.653 3.41991 8.46454 2.96494C8.27609 2.50997 7.99986 2.09657 7.65164 1.74835C7.30342 1.40013 6.89003 1.12391 6.43506 0.935455C5.98009 0.747 5.49245 0.650003 4.99999 0.650003C4.00543 0.650003 3.0516 1.04509 2.34834 1.74835C1.64508 2.45161 1.24999 3.40544 1.24999 4.4C1.24999 5.39456 1.64508 6.34839 2.34834 7.05165C3.0516 7.75492 4.00543 8.15 4.99999 8.15Z" fill="#A2A7AF" stroke="#A2A7AF" stroke-width="0.3"/>
<path d="M3.73072 7.631L3.7307 7.63103L3.32527 8.03526C2.57283 8.7879 2.15009 9.80855 2.14999 10.8728C2.14999 10.8728 2.14999 10.8728 2.14999 10.8728V13.1C2.14999 13.2989 2.07097 13.4897 1.93032 13.6303M3.73072 7.631L1.93032 13.6303M3.73072 7.631C3.80056 7.56133 3.85598 7.47857 3.89379 7.38745C3.9316 7.29634 3.95106 7.19865 3.95106 7.1C3.95106 7.00135 3.9316 6.90367 3.89379 6.81255C3.856 6.72149 3.80064 6.63878 3.73085 6.56914C3.66121 6.49936 3.5785 6.44399 3.48744 6.4062C3.39632 6.36839 3.29864 6.34893 3.19999 6.34893C3.10134 6.34893 3.00365 6.36839 2.91254 6.4062C2.82142 6.44401 2.73866 6.49943 2.66899 6.56927L2.66896 6.56929L2.26471 6.97475C2.2647 6.97476 2.26468 6.97478 2.26466 6.9748C1.23096 8.00868 0.650163 9.41078 0.649988 10.8728V10.8728M3.73072 7.631L0.649988 10.8728M1.93032 13.6303C1.78967 13.771 1.5989 13.85 1.39999 13.85C1.20108 13.85 1.01031 13.771 0.869658 13.6303C0.729005 13.4897 0.649988 13.2989 0.649988 13.1V10.8728M1.93032 13.6303L0.649988 10.8728M17.6447 6.51004L17.5062 6.45255C17.544 6.36144 17.5994 6.27867 17.6693 6.209M17.6447 6.51004L17.97 6.18475M17.6447 6.51004L17.5062 6.45256C17.4684 6.54367 17.4489 6.64135 17.4489 6.74C17.4489 6.83865 17.4684 6.93634 17.5062 7.02745L17.6447 6.96996L17.5062 7.02746C17.544 7.11857 17.5994 7.20133 17.6693 7.271L17.6693 7.27103M17.6447 6.51004L17.6693 7.27103M17.6693 6.209L17.7752 6.3152L17.669 6.20927C17.6691 6.20918 17.6692 6.20909 17.6693 6.209ZM17.6693 6.209C17.7389 6.13928 17.8215 6.08396 17.9125 6.0462L17.97 6.18475M17.97 6.18475L17.9125 6.0462C18.0037 6.00839 18.1013 5.98893 18.2 5.98893C18.2986 5.98893 18.3963 6.00839 18.4874 6.0462L18.4299 6.18475M17.97 6.18475H18.4299M18.4299 6.18475L18.4874 6.0462C18.5786 6.08401 18.6613 6.13943 18.731 6.20927M18.4299 6.18475L18.731 6.20927M17.6693 7.27103L18.0747 7.67525C18.0747 7.67529 18.0748 7.67533 18.0748 7.67537C18.8272 8.42801 19.2499 9.44862 19.25 10.5128V13.1C19.25 13.2989 19.329 13.4897 19.4697 13.6303C19.6103 13.771 19.8011 13.85 20 13.85C20.1989 13.85 20.3897 13.771 20.5303 13.6303C20.671 13.4897 20.75 13.2989 20.75 13.1V10.5128C20.7498 9.05075 20.169 7.64864 19.1353 6.61475L18.731 6.20929L18.731 6.20927M17.6693 7.27103L18.731 6.20927" fill="#A2A7AF" stroke="#A2A7AF" stroke-width="0.3"/>
<path d="M15.8 6.65C15.2032 6.65 14.6309 6.41295 14.209 5.99099C13.787 5.56904 13.55 4.99674 13.55 4.4C13.55 3.80327 13.787 3.23097 14.209 2.80901C14.6309 2.38706 15.2032 2.15 15.8 2.15C16.3967 2.15 16.969 2.38706 17.391 2.80901C17.8129 3.23097 18.05 3.80327 18.05 4.4C18.05 4.99674 17.8129 5.56904 17.391 5.99099C16.969 6.41295 16.3967 6.65 15.8 6.65ZM14.3649 7.86455C14.8199 8.05301 15.3075 8.15 15.8 8.15C16.7945 8.15 17.7484 7.75492 18.4516 7.05165C19.1549 6.34839 19.55 5.39456 19.55 4.4C19.55 3.40544 19.1549 2.45161 18.4516 1.74835C17.7484 1.04509 16.7945 0.650003 15.8 0.650003C15.3075 0.650003 14.8199 0.747 14.3649 0.935455C13.9099 1.12391 13.4966 1.40013 13.1483 1.74835C12.8001 2.09657 12.5239 2.50997 12.3354 2.96494C12.147 3.41991 12.05 3.90755 12.05 4.4C12.05 4.89246 12.147 5.38009 12.3354 5.83507C12.5239 6.29004 12.8001 6.70343 13.1483 7.05165C13.4966 7.39987 13.9099 7.6761 14.3649 7.86455ZM8.38473 12.8847C8.91921 12.3503 9.64411 12.05 10.4 12.05C10.7742 12.05 11.1449 12.1237 11.4906 12.2669C11.8364 12.4102 12.1506 12.6201 12.4152 12.8847C12.6799 13.1494 12.8898 13.4636 13.033 13.8094C13.1763 14.1551 13.25 14.5257 13.25 14.9V16.46C13.25 16.6589 13.329 16.8497 13.4697 16.9903C13.6103 17.131 13.8011 17.21 14 17.21C14.1989 17.21 14.3897 17.131 14.5303 16.9903C14.671 16.8497 14.75 16.6589 14.75 16.46V14.9C14.75 13.7463 14.2917 12.6399 13.4759 11.8241C12.6601 11.0083 11.5537 10.55 10.4 10.55C9.24629 10.55 8.13985 11.0083 7.32407 11.8241C6.50828 12.6399 6.04998 13.7463 6.04998 14.9V16.46C6.04998 16.6589 6.129 16.8497 6.26965 16.9903C6.4103 17.131 6.60107 17.21 6.79998 17.21C6.99889 17.21 7.18966 17.131 7.33031 16.9903C7.47096 16.8497 7.54998 16.6589 7.54998 16.46V14.9C7.54998 14.1441 7.85025 13.4192 8.38473 12.8847Z" fill="#A2A7AF" stroke="#A2A7AF" stroke-width="0.3"/>
<path d="M11.991 9.291C11.569 9.71295 10.9967 9.95001 10.4 9.95001C9.80325 9.95001 9.23095 9.71295 8.809 9.291C8.38704 8.86904 8.14999 8.29674 8.14999 7.70001C8.14999 7.10327 8.38704 6.53097 8.809 6.10902C9.23095 5.68706 9.80325 5.45001 10.4 5.45001C10.9967 5.45001 11.569 5.68706 11.991 6.10902C12.4129 6.53097 12.65 7.10327 12.65 7.70001C12.65 8.29674 12.4129 8.86904 11.991 9.291ZM10.4 11.45C11.3945 11.45 12.3484 11.0549 13.0516 10.3517C13.7549 9.6484 14.15 8.69457 14.15 7.70001C14.15 6.70544 13.7549 5.75162 13.0516 5.04836C12.3484 4.34509 11.3945 3.95001 10.4 3.95001C9.40543 3.95001 8.4516 4.34509 7.74834 5.04836C7.04508 5.75162 6.64999 6.70544 6.64999 7.70001C6.64999 8.69457 7.04508 9.6484 7.74834 10.3517C8.4516 11.0549 9.40543 11.45 10.4 11.45Z" fill="#A2A7AF" stroke="#A2A7AF" stroke-width="0.3"/>
</svg>
