<svg width="11" height="12" viewBox="0 0 11 12" fill="none" xmlns="http://www.w3.org/2000/svg">
<path fill-rule="evenodd" clip-rule="evenodd" d="M5.5 0C6.95869 0 8.35764 0.564217 9.38909 1.56853C10.4205 2.57284 11 3.93499 11 5.3553C11 7.18443 9.97578 8.68153 8.89656 9.75557C8.35736 10.2864 7.76901 10.7676 7.139 11.1932L6.87867 11.3657L6.75644 11.4449L6.52606 11.5877L6.32072 11.7097L6.0665 11.8537C5.89394 11.9496 5.69869 12 5.5 12C5.30131 12 5.10606 11.9496 4.9335 11.8537L4.67928 11.7097L4.3615 11.5192L4.24417 11.4449L3.99361 11.2824C3.31395 10.8347 2.68089 10.3233 2.10344 9.75557C1.02422 8.68094 0 7.18443 0 5.3553C0 3.93499 0.579463 2.57284 1.61091 1.56853C2.64236 0.564217 4.04131 0 5.5 0ZM5.5 1.19007C4.36546 1.19007 3.27739 1.6289 2.47515 2.41003C1.67292 3.19117 1.22222 4.25061 1.22222 5.3553C1.22222 6.73697 1.99956 7.94964 2.97672 8.92312C3.39688 9.33726 3.85101 9.71735 4.33461 10.0596L4.6145 10.2536C4.70494 10.3151 4.79193 10.3722 4.87544 10.425L5.11378 10.5737L5.32339 10.6981L5.5 10.7987L5.77806 10.6386L6.00233 10.5017C6.1217 10.428 6.24943 10.3452 6.3855 10.2536L6.66539 10.0596C7.14899 9.71735 7.60312 9.33726 8.02328 8.92312C9.00044 7.95024 9.77778 6.73697 9.77778 5.3553C9.77778 4.25061 9.32708 3.19117 8.52485 2.41003C7.72261 1.6289 6.63454 1.19007 5.5 1.19007ZM5.5 2.97517C6.14831 2.97517 6.77006 3.22593 7.22848 3.67229C7.68691 4.11865 7.94444 4.72405 7.94444 5.3553C7.94444 5.98655 7.68691 6.59195 7.22848 7.03831C6.77006 7.48467 6.14831 7.73543 5.5 7.73543C4.85169 7.73543 4.22994 7.48467 3.77152 7.03831C3.31309 6.59195 3.05556 5.98655 3.05556 5.3553C3.05556 4.72405 3.31309 4.11865 3.77152 3.67229C4.22994 3.22593 4.85169 2.97517 5.5 2.97517ZM5.5 4.16523C5.17585 4.16523 4.86497 4.29061 4.63576 4.5138C4.40655 4.73698 4.27778 5.03967 4.27778 5.3553C4.27778 5.67092 4.40655 5.97362 4.63576 6.1968C4.86497 6.41998 5.17585 6.54537 5.5 6.54537C5.82415 6.54537 6.13503 6.41998 6.36424 6.1968C6.59345 5.97362 6.72222 5.67092 6.72222 5.3553C6.72222 5.03967 6.59345 4.73698 6.36424 4.5138C6.13503 4.29061 5.82415 4.16523 5.5 4.16523Z" fill="#0512F5"/>
</svg>
