<svg width="18" height="18" viewBox="0 0 18 18" fill="none" xmlns="http://www.w3.org/2000/svg">
<path d="M15.9375 8.99998H6.67125M6.67125 8.99998C6.67125 9.43361 6.49824 9.84948 6.19162 10.1561C5.885 10.4627 5.46913 10.635 5.0355 10.635C4.60187 10.635 4.186 10.4627 3.87938 10.1561C3.57276 9.84948 3.4005 9.43361 3.4005 8.99998M6.67125 8.99998C6.67125 8.56635 6.49824 8.15048 6.19162 7.84386C5.885 7.53724 5.46913 7.36498 5.0355 7.36498C4.60187 7.36498 4.186 7.53724 3.87938 7.84386C3.57276 8.15048 3.4005 8.56635 3.4005 8.99998M3.4005 8.99998H2.0625M15.9375 13.9552H11.6265M11.6265 13.9552C11.6265 14.389 11.4538 14.8053 11.1471 15.112C10.8404 15.4187 10.4245 15.591 9.99075 15.591C9.55712 15.591 9.14125 15.418 8.83463 15.1113C8.52801 14.8047 8.35575 14.3889 8.35575 13.9552M11.6265 13.9552C11.6265 13.5215 11.4538 13.1059 11.1471 12.7992C10.8404 12.4925 10.4245 12.3202 9.99075 12.3202C9.55712 12.3202 9.14125 12.4925 8.83463 12.7991C8.52801 13.1057 8.35575 13.5216 8.35575 13.9552M8.35575 13.9552H2.0625M15.9375 4.04473H13.6088M13.6088 4.04473C13.6088 4.25944 13.5657 4.47205 13.4835 4.67042C13.4014 4.86878 13.2809 5.04902 13.1291 5.20085C12.9773 5.35267 12.7971 5.47311 12.5987 5.55527C12.4003 5.63744 12.1877 5.67973 11.973 5.67973C11.5394 5.67973 11.1235 5.50747 10.8169 5.20085C10.5103 4.89423 10.338 4.47836 10.338 4.04473M13.6088 4.04473C13.6088 3.83002 13.5657 3.61741 13.4835 3.41904C13.4014 3.22067 13.2809 3.04043 13.1291 2.88861C12.9773 2.73679 12.7971 2.61635 12.5987 2.53419C12.4003 2.45202 12.1877 2.40973 11.973 2.40973C11.5394 2.40973 11.1235 2.58199 10.8169 2.88861C10.5103 3.19523 10.338 3.6111 10.338 4.04473M10.338 4.04473H2.0625" stroke="#0512F5" stroke-width="1.5" stroke-miterlimit="10" stroke-linecap="round"/>
</svg>
