<svg width="24" height="24" viewBox="0 0 24 24" fill="none" xmlns="http://www.w3.org/2000/svg">
<path d="M16.6667 9.2C16.6667 7.82087 16.175 6.49823 15.2998 5.52305C14.4246 4.54785 13.2377 4 12 4C10.7623 4 9.57534 4.54785 8.70017 5.52305C7.825 6.49823 7.33333 7.82087 7.33333 9.2C7.33333 15.2667 5 17 5 17H19C19 17 16.6667 15.2667 16.6667 9.2Z" stroke="#0512F5" stroke-width="1.5" stroke-linecap="round" stroke-linejoin="round"/>
<path d="M14 19C13.8476 19.3042 13.6288 19.5566 13.3655 19.7321C13.1023 19.9076 12.8038 20 12.5 20C12.1962 20 11.8977 19.9076 11.6345 19.7321C11.3713 19.5566 11.1524 19.3042 11 19" stroke="#0512F5" stroke-width="1.5" stroke-linecap="round" stroke-linejoin="round"/>
<circle cx="7.5" cy="6.5" r="3.5" fill="#F20000"/>
</svg>
