<svg width="20" height="19" viewBox="0 0 20 19" fill="none" xmlns="http://www.w3.org/2000/svg">
<path d="M2.50001 4.00001V17.3333H17.5V19H2.50001C2.05798 19 1.63406 18.8244 1.3215 18.5119C1.00894 18.1993 0.833344 17.7754 0.833344 17.3333V4.00001H2.50001ZM13.3333 6.50001H17.9167L13.3333 1.91667V6.50001ZM5.83334 0.666672H14.1667L19.1667 5.66667V14C19.1667 14.442 18.9911 14.866 18.6785 15.1785C18.366 15.4911 17.942 15.6667 17.5 15.6667H5.83334C5.39132 15.6667 4.96739 15.4911 4.65483 15.1785C4.34227 14.866 4.16668 14.442 4.16668 14V2.33334C4.16668 1.89131 4.34227 1.46739 4.65483 1.15483C4.96739 0.842266 5.39132 0.666672 5.83334 0.666672ZM5.83334 2.33334V14H17.5V8.16667H11.6667V2.33334H5.83334Z" fill="#0512F5"/>
<path d="M2.50001 4.00001V17.3333H17.5V19H2.50001C2.05798 19 1.63406 18.8244 1.3215 18.5119C1.00894 18.1993 0.833344 17.7754 0.833344 17.3333V4.00001H2.50001ZM13.3333 6.50001H17.9167L13.3333 1.91667V6.50001ZM5.83334 0.666672H14.1667L19.1667 5.66667V14C19.1667 14.442 18.9911 14.866 18.6785 15.1785C18.366 15.4911 17.942 15.6667 17.5 15.6667H5.83334C5.39132 15.6667 4.96739 15.4911 4.65483 15.1785C4.34227 14.866 4.16668 14.442 4.16668 14V2.33334C4.16668 1.89131 4.34227 1.46739 4.65483 1.15483C4.96739 0.842266 5.39132 0.666672 5.83334 0.666672ZM5.83334 2.33334V14H17.5V8.16667H11.6667V2.33334H5.83334Z" stroke="#0512F5"/>
</svg>
