<svg width="20" height="13" viewBox="0 0 24 24" fill="none" xmlns="http://www.w3.org/2000/svg">
<path fill-rule="evenodd" clip-rule="evenodd" d="M4.5 15C4.89782 15 5.27936 15.158 5.56066 15.4393C5.84196 15.7206 6 16.1022 6 16.5C6 16.8978 5.84196 17.2794 5.56066 17.5607C5.27936 17.842 4.89782 18 4.5 18C4.10218 18 3.72064 17.842 3.43934 17.5607C3.15804 17.2794 3 16.8978 3 16.5C3 16.1022 3.15804 15.7206 3.43934 15.4393C3.72064 15.158 4.10218 15 4.5 15ZM22.499 15.5C23.052 15.5 23.5 15.944 23.5 16.5C23.5 17.0525 23.055 17.5 22.499 17.5H8.501C8.36952 17.5004 8.23926 17.4748 8.1177 17.4247C7.99614 17.3746 7.88567 17.301 7.79266 17.208C7.69964 17.1151 7.6259 17.0047 7.57568 16.8832C7.52545 16.7617 7.49974 16.6315 7.5 16.5C7.5 15.9475 7.945 15.5 8.501 15.5H22.499ZM4.5 10C4.89782 10 5.27936 10.158 5.56066 10.4393C5.84196 10.7206 6 11.1022 6 11.5C6 11.8978 5.84196 12.2794 5.56066 12.5607C5.27936 12.842 4.89782 13 4.5 13C4.10218 13 3.72064 12.842 3.43934 12.5607C3.15804 12.2794 3 11.8978 3 11.5C3 11.1022 3.15804 10.7206 3.43934 10.4393C3.72064 10.158 4.10218 10 4.5 10ZM22.499 10.5C23.052 10.5 23.5 10.944 23.5 11.5C23.5 12.0525 23.055 12.5 22.499 12.5H8.501C8.36952 12.5004 8.23926 12.4748 8.1177 12.4247C7.99614 12.3746 7.88567 12.301 7.79266 12.208C7.69964 12.1151 7.6259 12.0047 7.57568 11.8832C7.52545 11.7617 7.49974 11.6315 7.5 11.5C7.5 10.9475 7.945 10.5 8.501 10.5H22.499ZM4.5 5C4.89782 5 5.27936 5.15804 5.56066 5.43934C5.84196 5.72064 6 6.10218 6 6.5C6 6.89782 5.84196 7.27936 5.56066 7.56066C5.27936 7.84196 4.89782 8 4.5 8C4.10218 8 3.72064 7.84196 3.43934 7.56066C3.15804 7.27936 3 6.89782 3 6.5C3 6.10218 3.15804 5.72064 3.43934 5.43934C3.72064 5.15804 4.10218 5 4.5 5ZM22.499 5.5C23.052 5.5 23.5 5.944 23.5 6.5C23.5 7.0525 23.055 7.5 22.499 7.5H8.501C8.36952 7.5004 8.23926 7.47481 8.1177 7.4247C7.99614 7.3746 7.88567 7.30097 7.79266 7.20805C7.69964 7.11513 7.6259 7.00474 7.57568 6.88323C7.52545 6.76172 7.49974 6.63148 7.5 6.5C7.5 5.9475 7.945 5.5 8.501 5.5H22.499Z" fill="#494949"/>
</svg>
