<svg width="20" height="16" viewBox="0 0 20 16" fill="none" xmlns="http://www.w3.org/2000/svg">
<path d="M0.833344 13.625V6.89844C0.833344 6.64844 0.879177 6.41031 0.970844 6.18406C1.06251 5.95781 1.19237 5.75844 1.36043 5.58594L5.02709 1.83594C5.21043 1.64844 5.41668 1.50781 5.64584 1.41406C5.87501 1.32031 6.10418 1.27344 6.33334 1.27344C6.56251 1.27344 6.79168 1.32031 7.02084 1.41406C7.25001 1.50781 7.45626 1.64844 7.63959 1.83594L11.3063 5.58594C11.4743 5.75781 11.6042 5.95719 11.6958 6.18406C11.7875 6.41094 11.8333 6.64906 11.8333 6.89844V13.625C11.8333 14.1406 11.654 14.5822 11.2953 14.9497C10.9365 15.3172 10.5048 15.5006 10 15.5H2.66668C2.16251 15.5 1.73107 15.3166 1.37234 14.9497C1.01362 14.5828 0.833955 14.1412 0.833344 13.625ZM2.66668 13.625H5.41668V11.75C5.41668 11.4844 5.50468 11.2619 5.68068 11.0825C5.85668 10.9031 6.07423 10.8131 6.33334 10.8125C6.59245 10.8119 6.81032 10.9019 6.98693 11.0825C7.16354 11.2631 7.25123 11.4856 7.25001 11.75V13.625H10V6.89844L6.33334 3.14844L2.66668 6.89844V13.625ZM13.6667 14.5625V5.35156L10.4813 2.09375C10.191 1.79688 10.1222 1.45688 10.275 1.07375C10.4278 0.690626 10.7104 0.499377 11.1229 0.500002C11.2451 0.500002 11.3674 0.527501 11.4896 0.582501C11.6118 0.637501 11.7111 0.703752 11.7875 0.781252L14.9729 4.03906C15.141 4.21094 15.2708 4.41031 15.3625 4.63719C15.4542 4.86406 15.5 5.10219 15.5 5.35156V14.5625C15.5 14.8281 15.412 15.0509 15.236 15.2309C15.06 15.4109 14.8425 15.5006 14.5833 15.5C14.3242 15.4994 14.1067 15.4094 13.9307 15.23C13.7547 15.0506 13.6667 14.8281 13.6667 14.5625ZM17.3333 14.5625V3.80469L15.6604 2.09375C15.3701 1.79688 15.3014 1.45688 15.4542 1.07375C15.607 0.690626 15.8896 0.499377 16.3021 0.500002C16.4243 0.500002 16.5465 0.527501 16.6688 0.582501C16.791 0.637501 16.8903 0.703752 16.9667 0.781252L18.6396 2.49219C18.8076 2.66406 18.9375 2.86344 19.0292 3.09031C19.1208 3.31719 19.1667 3.55531 19.1667 3.80469V14.5625C19.1667 14.8281 19.0787 15.0509 18.9027 15.2309C18.7267 15.4109 18.5091 15.5006 18.25 15.5C17.9909 15.4994 17.7733 15.4094 17.5973 15.23C17.4213 15.0506 17.3333 14.8281 17.3333 14.5625ZM6.33334 8.9375C6.07362 8.9375 5.85607 8.8475 5.68068 8.6675C5.50529 8.4875 5.41729 8.265 5.41668 8C5.41607 7.735 5.50407 7.5125 5.68068 7.3325C5.85729 7.1525 6.07484 7.0625 6.33334 7.0625C6.59184 7.0625 6.8097 7.1525 6.98693 7.3325C7.16415 7.5125 7.25184 7.735 7.25001 8C7.24818 8.265 7.16018 8.48781 6.98601 8.66844C6.81184 8.84906 6.59429 8.93875 6.33334 8.9375Z" fill="#A2A7AF"/>
</svg>
